<svg xmlns="http://www.w3.org/2000/svg" viewBox="0 0 2048 2048" fill="currentColor">
<path d="M 1001.24 493.584 C 1129.93 488.527 1252.13 542.003 1314.01 659.667 C 1321.83 674.53 1346.83 733.38 1342.63 746.743 C 1332.68 751.052 1184.16 796.383 1181.84 796.26 C 1175.88 795.945 1176.43 792.347 1176.18 787.669 C 1175.87 781.905 1173.29 775.825 1171.44 770.389 C 1162.42 743.835 1149.74 720.557 1129.79 700.551 C 1099.95 670.631 1062.28 659.67 1020.88 659.497 C 981.249 659.331 942.423 667.533 913.549 696.486 C 891.833 718.26 882.96 745.326 883.267 775.593 C 883.52 800.648 892.228 821.24 912.113 837.132 C 931.258 852.434 956.635 860.709 979.397 869.104 C 1087.42 908.946 1204.29 921.126 1290.03 1005.98 C 1332.15 1048.3 1355.87 1105.51 1356.06 1165.21 C 1357.8 1282.27 1308.55 1369.32 1204.16 1425.27 C 1196.69 1429.27 1173.29 1442.91 1166.72 1440.98 C 1163.05 1436.29 1165.35 1405.92 1165.53 1398.46 C 1165.89 1379.76 1166.11 1361.05 1166.19 1342.35 C 1166.37 1318.37 1164.69 1285.33 1167.36 1262.19 C 1172.35 1236.06 1185.35 1213.79 1182.28 1185.86 C 1173.65 1107.47 1116.7 1093.1 1052.98 1071.89 C 962.073 1041.62 848.097 1016.76 773.344 954.952 C 669.996 869.497 683.691 700.605 766.422 605.966 C 818.305 545.872 884.198 509.978 962.505 497.392 C 974.999 495.384 988.713 494.671 1001.24 493.584 z"/>
<path d="M 692.135 945.954 C 698.887 953.099 698.619 954.718 703.512 963.28 L 698.975 962.997 C 695.428 966.469 695.516 977.917 695.511 982.994 C 695.444 1050.11 695.441 1117.3 695.461 1184.41 L 695.529 1238.24 C 695.539 1245.46 695.893 1261.45 695.018 1268.05 C 692.008 1252.15 692.492 1232.27 692.486 1215.82 L 692.51 1155.26 L 692.135 945.954 z"/>
<path d="M 695.018 1268.05 C 695.893 1261.45 695.539 1245.46 695.529 1238.24 L 695.461 1184.41 C 695.441 1117.3 695.444 1050.11 695.511 982.994 C 695.516 977.917 695.428 966.469 698.975 962.997 L 703.512 963.28 C 721.9 999.859 752.556 1028.95 788.172 1048.6 C 800.2 1055.24 812.326 1058.18 823.454 1066.63 C 824.344 1115.19 823.22 1166.61 823.282 1215.54 L 823.629 1414.52 C 823.632 1423.22 824.584 1479.66 822.71 1484.81 L 820.512 1486.98 C 815.04 1486.91 785.156 1455.16 779.473 1449.41 C 730.812 1400.14 699.131 1337.94 695.018 1268.05 z"/>
<path d="M 856.864 1076.53 C 863.426 1076.28 869.497 1080.53 875.929 1082.26 C 919.033 1093.87 967.41 1115.64 979.419 1163.07 C 984.043 1181.33 982.799 1206.06 982.76 1225.32 L 982.776 1290.16 L 982.538 1456.58 C 982.659 1485.52 983.692 1514.78 983.491 1543.78 C 983.464 1547.67 981.842 1548.17 978.979 1550.86 C 976.538 1548.79 974.907 1545.95 971.936 1543.53 C 909.889 1493.03 861.686 1412.75 855.823 1332.1 C 852.353 1284.36 854.494 1232.15 854.421 1184 C 854.234 1159.61 854.21 1135.23 854.348 1110.84 C 854.318 1099.96 851.354 1085.46 856.864 1076.53 z"/>
<path d="M 1009.13 1132.18 C 1021.78 1130.41 1053.64 1142.09 1066.08 1146.45 C 1089.42 1154.65 1119.71 1179.06 1127.82 1203.46 C 1138.07 1234.34 1135.35 1278.69 1135.3 1312.14 L 1134.93 1425.13 C 1134.75 1454.37 1134.76 1483.61 1134.96 1512.85 C 1135.02 1520.48 1136.66 1551.89 1134.38 1557.4 C 1126.02 1556.58 1091.05 1520.03 1083.32 1511.16 C 1076.41 1503.2 1069.87 1494.92 1063.72 1486.35 C 999.367 1397.38 1009.25 1306.37 1010.48 1202.23 C 1010.59 1190.61 1010.41 1178.98 1009.95 1167.36 C 1009.47 1157.74 1007.72 1140.99 1009.13 1132.18 z"/>
</svg>
